<?xml version="1.0" standalone="no"?>
<!DOCTYPE svg PUBLIC "-//W3C//DTD SVG 20010904//EN"
 "http://www.w3.org/TR/2001/REC-SVG-20010904/DTD/svg10.dtd">
<svg version="1.0" xmlns="http://www.w3.org/2000/svg"
 width="216.000000pt" height="216.000000pt" viewBox="0 0 216.000000 216.000000"
 preserveAspectRatio="xMidYMid meet">

<g transform="translate(0.000000,216.000000) scale(0.100000,-0.100000)"
fill="#A0522D" stroke="none">
<path d="M1095 1628 c-183 -192 -416 -499 -538 -709 -31 -53 -32 -59 -12 -59
18 0 18 -8 0 -40 -21 -36 -19 -39 18 -28 17 6 37 12 44 14 6 2 40 45 74 96
127 190 240 331 426 537 l112 123 -14 29 c-20 39 -19 49 11 80 27 28 27 69 -1
69 -7 0 -61 -51 -120 -112z"/>
<path d="M1244 1508 c-54 -57 -91 -98 -194 -213 -93 -105 -290 -362 -290 -379
0 -3 14 -6 30 -6 35 0 37 -6 10 -40 -27 -35 -25 -40 18 -40 35 0 41 5 92 71
77 100 147 185 270 324 145 166 135 150 120 185 -12 28 -10 34 18 69 28 35 30
41 19 65 -7 14 -17 26 -22 26 -6 0 -38 -28 -71 -62z"/>
<path d="M1290 1268 c-63 -73 -127 -146 -141 -163 -15 -16 -59 -68 -98 -115
-63 -76 -69 -86 -54 -98 9 -6 25 -12 34 -12 28 0 30 -15 7 -45 -17 -22 -19
-29 -7 -36 35 -22 51 -12 116 72 15 20 77 97 137 170 60 74 114 140 119 147 7
8 6 21 -3 37 -11 21 -9 27 19 57 17 18 31 41 31 51 0 19 -28 67 -39 67 -4 0
-58 -60 -121 -132z"/>
<path d="M1496 1215 c-9 -9 -37 -44 -63 -78 -26 -34 -90 -114 -141 -177 l-92
-115 27 -8 c16 -5 39 -13 52 -18 l24 -10 -22 -23 c-24 -26 -27 -42 -8 -49 21
-8 28 -1 136 143 78 105 100 140 96 158 -4 15 5 37 26 68 l31 46 -18 35 c-24
44 -29 47 -48 28z"/>
<path d="M1519 940 c-46 -66 -85 -125 -87 -130 -2 -6 17 -10 42 -10 52 0 69
-19 44 -48 -26 -30 -30 -42 -15 -42 18 0 92 116 106 164 5 20 19 50 32 67 l22
32 -23 43 c-12 24 -26 44 -30 44 -4 0 -45 -54 -91 -120z"/>
<path d="M1672 860 l-23 -40 24 0 c13 0 32 6 42 14 17 12 18 18 7 40 -16 35
-23 33 -50 -14z"/>
</g>
</svg>
